<svg width="453" height="195" viewBox="0 0 453 195" fill="none" xmlns="http://www.w3.org/2000/svg">
<path d="M325.642 31.6H315.642C307.042 31.6 303.642 28.8 303.642 19.8V11.8C303.642 2.8 307.042 0 315.642 0H325.642C334.242 0 337.642 2.8 337.642 11.8V19.8C337.642 28.8 334.242 31.6 325.642 31.6ZM335.642 50.6V86C335.642 97.6 340.042 102 351.642 102H364.242V121C364.242 128.6 361.642 131 354.242 131L291.642 132C284.242 132 281.642 128.6 281.642 121V102H294.242C306.242 102 310.242 98 310.242 86V80.2C310.242 69.2 305.842 66.2 294.242 66.2H281.642V50.6C281.642 43 284.242 40.6 291.642 40.6H325.642C333.242 40.6 335.642 42.8 335.642 50.6Z" fill="#252525"/>
<path d="M251.8 1H269.2C276.8 1 279.2 3.2 279.2 11V40.6H319.8V56.2C319.8 64 317.2 66.2 308.8 66.2H279.2V84.8C279.2 96.4 282.6 100.4 297 100.4C305.4 100.4 312.8 99.6 320.2 97.8L321.6 120.6C321.8 125.2 321.4 126.8 317.4 128.4C312.2 130.6 304.2 132 293.6 132C263.6 132 251.8 119.6 251.8 90.4V66.2H224.2V49.6C224.2 43 227.2 40.6 231.8 40.6C245.2 40.6 251.8 34.6 251.8 19.2V1Z" fill="#252525"/>
<path d="M176 177.4C176 185 173.4 187.4 166 187.4H103.4C95.9999 187.4 93.3999 185 93.3999 177.4V158.4H106C118 158.4 122 154.4 122 142.4V103.6C122 92.6 117.6 89.6 106 89.6H93.3999V74C93.3999 66.4 95.9999 64 103.4 64H137.4C145 64 147.4 66.2 147.4 74V82.6C156.6 70.2 172.2 63 189.2 63H202.4C231.4 63 247.2 79.2 247.2 103.6V112.8C247.2 140.2 229.8 155.4 198.4 155.4H192C172.2 155.4 158.2 150 147.4 138.4V142.4C147.4 154 151.8 158.4 163.4 158.4H176V177.4ZM153.4 107.2C153.4 117.2 162.6 123.4 179.6 123.4H200C215.4 123.4 221.8 117 221.8 107.2C221.8 96.6 215 89.6 200.4 89.6H181C163 89.6 153.4 96.2 153.4 107.2Z" fill="#252525"/>
<path d="M92.4 117.8V139.8C92.4 184.2 79.6 195 46.2 195C12.6 195 0 184.2 0 139.8L0 117.8C0 73.4 12.6 62.6 46.2 62.6C79.6 62.6 92.4 73.4 92.4 117.8ZM59.2 139.8L59.2 117.8C59.2 94.2 54.4 90 43.4 90C32.8 90 28.4 94.2 28.4 117.8V139.8C28.4 163.4 32.8 167.6 43.4 167.6C54.6 167.6 59.2 163.4 59.2 139.8Z" fill="#252525"/>
<path d="M452.4 117.8V139.8C452.4 184.2 439.6 195 406.2 195C372.6 195 360 184.2 360 139.8V117.8C360 73.4 372.6 62.6 406.2 62.6C439.6 62.6 452.4 73.4 452.4 117.8ZM419.2 139.8V117.8C419.2 94.2 414.4 90 403.4 90C392.8 90 388.4 94.2 388.4 117.8V139.8C388.4 163.4 392.8 167.6 403.4 167.6C414.6 167.6 419.2 163.4 419.2 139.8Z" fill="#252525"/>
</svg>
